<?xml version="1.0" encoding="utf-8"?>
<!-- Generator: Adobe Illustrator 26.0.1, SVG Export Plug-In . SVG Version: 6.00 Build 0)  -->
<svg version="1.1" xmlns="http://www.w3.org/2000/svg" xmlns:xlink="http://www.w3.org/1999/xlink" x="0px" y="0px"
	 viewBox="0 0 1920 700" style="enable-background:new 0 0 1920 700;" xml:space="preserve">
<style type="text/css">
	.st0{fill:#FFE8DA;}
	.st1{fill:#FFDAC5;}
	.st2{fill:#FFCCB3;}
	.st3{opacity:0.06;fill:#FFFFFF;}
	.st4{fill:#F9FAFD;}
	.st5{fill:#D5D5A3;}
	.st6{fill:#FFFFFF;}
	.st7{fill:#E98918;}
	.st8{fill:#FFC300;}
	.st9{fill:#2E257E;}
	.st10{fill:#1E1A5F;}
	.st11{fill:#332F8D;}
	.st12{fill:#514899;}
	.st13{fill:#ECA40D;}
	.st14{fill:#1D1B1B;}
	.st15{fill:#EDB9B8;}
	.st16{fill:#E38C9C;}
	.st17{fill:#E2527C;}
	.st18{fill:#AA9ECD;}
	.st19{fill:#E39640;}
	.st20{fill:#9D90C5;}
	.st21{fill:#DE7D7C;}
	.st22{fill:#EBA69D;}
	.st23{fill:#E6948B;}
	.st24{fill:#9B90C5;}
	.st25{fill:#42B8D6;}
	.st26{fill:#65C0DA;}
	.st27{fill:#2E267F;}
	.st28{fill:#524999;}
	.st29{fill:#7E3A4D;}
	.st30{fill:#592734;}
	.st31{fill:#E2683F;}
	.st32{fill:#CFCAE6;}
	.st33{fill:#51489A;}
	.st34{fill:url(#SVGID_1_);}
	.st35{fill:url(#SVGID_00000085945239214735877160000003011844729994667393_);}
	.st36{fill:url(#SVGID_00000114038372028302242150000016204954259182876076_);}
	.st37{fill:#9A90C5;}
	.st38{fill:#C5C5DA;}
	.st39{fill:#3FB2A2;}
	.st40{fill:#05A2B1;}
</style>
<g id="bg_x5F_flow_x5F_bottom">
	<rect class="st0" width="1920" height="700" style="display:none;"/>
</g>
<g id="bg_x5F_flow_x5F_middle">
	<path class="st1" d="M1920,32.48l-7.22-456.14H0V32.48c76.95,86.99-31.66,182.71,45.29,269.69
		c76.95,86.99,185.56-8.74,262.51,78.25c76.94,86.98-31.67,182.7,45.28,269.69c76.94,86.98,185.55-8.74,262.5,78.24
		c76.94,86.98-31.67,182.7,45.28,269.68h598.31c76.94-86.98-31.67-182.7,45.28-269.68c76.94-86.98,185.55,8.74,262.5-78.24
		c76.94-86.98-31.67-182.7,45.28-269.69c76.95-86.99,185.56,8.74,262.51-78.25C1951.66,215.19,1843.05,119.47,1920,32.48z"/>
</g>
<g id="bg_x5F_flow_x5F_top">
	<path class="st2" d="M1753.22-423.5H166.78c77.1,131.8-50.13,209.15,26.96,340.94c77.1,131.79,204.32,54.44,281.42,186.24
		c77.1,131.8-50.13,209.15,26.96,340.95c77.1,131.8,204.33,54.45,281.43,186.26c77.1,131.8-50.13,209.16,26.97,340.96h298.93
		c77.1-131.8-50.13-209.16,26.97-340.96c77.1-131.8,204.33-54.45,281.43-186.26c77.1-131.8-50.13-209.15,26.96-340.95
		c77.1-131.79,204.33-54.44,281.42-186.24C1803.35-214.35,1676.12-291.7,1753.22-423.5z"/>
</g>
<g id="bg_x5F_flow_x5F_white">
	<path class="st3" d="M-86.74-259.44c-8.47-26.24-11.53-58.98,10.73-77.39c17.21-14.23,53.15-11.07,68.08,57.06
		C37.04-74.59,143.31,4.95,180.92,48.75c10.56,12.3,3.48,27.35-25.1,10.78C0.21-30.73-72.02-213.85-86.74-259.44z M2134.61,200.26
		c-23.08-38.71-35.34,53.92-168.67,93.69c-80.63,24.05-82.47,3.96-23.52-55.61c44.71-45.19,132.86-107.86,191.45-218.87
		c45.76-86.71,3.26-83.13-14.17-60.5c-35.98,46.7-177.28,201.6-244.86,227.81c-71.08,27.57,30.25-24.41,132.61-198.34
		c66.99-113.83,85.51-287.08,48.4-282.74c-37.11,4.35-26.53,101.1-118.09,224.54c-21.49,28.98-65.87,64.14-74.95,47.55
		c-9.07-16.59,28.9-126.31,10.82-128.01c-18.08-1.7-151.27,190.5-217.88,254.12c-19.81,18.92-56.16,54.04-71.54,38.63
		c-15.38-15.41,56.16-104.63,13-84.09c-37.96,18.07-52.71,171.21-279.9,264.79c-112,46.13-236.98,56-358.18,71.14
		c-2.36,0.3-1.78,3.67,0.46,3.76c159.21,6.53,316.88-21.55,464.38-75.31c7.63-2.18,15.16-4.39,22.61-6.62
		c-88.23,43.69-271.81,122.97-540.72,94.33c-61.88-6.59-121.05-28.32-179.3-49.04c-29.83-10.61-59.13-22.51-87.75-35.7
		c-26.5-12.22-52.3-28.31-79.93-38.01c-0.18-0.06-0.32,0.17-0.19,0.29c20.67,19.19,49.08,33.11,74.34,46.42
		c28.23,14.88,57.23,28.46,86.84,40.82c43.05,17.98,87.58,32.75,132.99,44.69c-208.94-13.91-458.43-68.45-693.26-286.8
		c-21.82-20.29-41.12-42.78-61.24-64.53C88.94,58.5,76.24,47.29,62.24,50.56C47.62,53.98,42.4,71.3,44.95,85.09
		c8.28,44.87,86.44,107.99,70.3,117.8C99.1,212.7,18.78,133.01-14.6,85.24C-47.99,37.46-86.38-55.83-134.67-59.75
		c-48.29-3.92-34.43,109.48,119.11,275.7c12.83,13.89,34.62,37.37,25.01,47.02c-9.61,9.65-52.41-0.91-95.96-50.87
		c-11.21-12.85-27.56-20.69-39.78-32.89c-86.77-86.6-124.48,48.12-62,129.98C388.42,1064.76,2341.95,547.99,2134.61,200.26z
		 M1447.78,110.14c4.27-2.57,10.06-5.07,14.06-2.13c2.68,1.97,3.14,5.55,3.09,8.72c-0.32,19.71-11.9,37.72-25.19,53.07
		c-16.55,19.1-162.78,127.95-174.21,85.48c-6.02-22.38,62.09-61.51,78.5-73.97C1377.31,156.02,1411.65,131.85,1447.78,110.14z
		 M259.3,166.04c-4.52-6.58-8.68-15.63-3.23-21.55c4.1-4.46,11.49-4.42,17.74-3.45c29.4,4.56,54.85,21.01,79.19,37.01
		c32.18,21.16,64.67,42.55,92.49,68.67c8.83,8.29,31.82,24.23,23.38,36.5c-7.9,11.48-33.85,3.32-44.24,0.76
		C355.77,267.03,297.17,221.1,259.3,166.04z M648.35,302.46c-29.24-11.71-50.36-34.6-35.59-53.3
		c23.26-29.45,79.28,9.28,121.24,24.29c84.56,30.24,183.89,35.46,182.78,46.39c-1.09,10.74-24.08,13.8-32.23,15.13
		C806.05,347.74,734.15,336.8,648.35,302.46z M230.95-23.31c6.56-33.79,58.16-4.81,75.53,6.4c21.28,13.74,42.57,27.48,63.85,41.22
		c6.29,4.06,12.89,8.46,15.89,15c5.33,11.6-3.53,25.53-15.87,30.79c-12.34,5.26-26.73,3.9-40.02,1.22
		c-15.71-3.17-31.26-8.14-44.35-16.8C266.25,41.46,226.04,1.96,230.95-23.31z M1867.39-229c-47.64,43.91-46.54,20.6-34.99,3.13
		c6.84-10.36,31.03-46.37,44.17-46.64C1893.21-272.83,1893.78-253.32,1867.39-229z"/>
</g>
<g id="book">
	<g>
		<g>
			<g>
				<path class="st4" d="M512.09,653.79c0,0,3.15-14.27,5.67-26.01c5.52,0.05,8.09-0.27,13.55-1.39c1.12-5.13,1.92-10.99,3.37-17.19
					c4.34-0.16,9.32-0.8,12.05-2.41c3.89-16.18,8.41-38.22,10.87-47.02c108.21,58.27,305.01-102.64,380.77,13.71
					c19.53,29.99,17.09,62.55,17.09,62.55L512.09,653.79z"/>
				<g>
					<path class="st5" d="M891.7,567.39c-10.38-6.22-22.23-9.35-34.13-10.12c-11.91-0.83-23.91,0.01-35.73,1.81
						c-23.67,3.67-46.83,10.3-69.96,16.96l-17.35,5.09c-5.84,1.65-11.69,3.23-17.59,4.63c-11.78,2.88-23.73,5.07-35.73,6.77
						c-24,3.28-48.51,3.98-72.42,0.41c12.06,0.65,24.09,0.57,36.07-0.31c11.98-0.81,23.9-2.24,35.72-4.26
						c11.84-1.91,23.56-4.48,35.2-7.33c11.63-2.86,23.09-6.45,34.74-9.72c11.61-3.31,23.26-6.54,35.06-9.27
						c11.78-2.79,23.71-5.12,35.78-6.5c6.03-0.69,12.1-1.2,18.18-1.3c6.08-0.14,12.19-0.01,18.23,0.81
						C869.84,556.57,881.86,560.31,891.7,567.39z"/>
				</g>
				<g>
					<path class="st5" d="M914.96,615.34c-12.64-7.13-26.76-10.81-40.91-12.31c-14.19-1.52-28.48-1.32-42.68-0.31
						c-28.42,2.09-56.52,7.27-84.61,12.42l-21.08,3.97c-7.07,1.26-14.16,2.45-21.27,3.45c-14.22,2.09-28.55,3.45-42.91,4.34
						c-28.71,1.62-57.74,0.64-86.1-4.57c14.32,1.37,28.63,2.04,42.93,1.92c14.29-0.06,28.56-0.7,42.77-1.94
						c14.22-1.13,28.36-2.93,42.45-5.01c14.08-2.09,28.04-4.93,42.16-7.44c14.08-2.55,28.2-5.02,42.43-6.96
						c14.21-2,28.53-3.56,42.94-4.16c7.2-0.34,14.42-0.41,21.64-0.1c7.22,0.26,14.45,0.84,21.61,2
						C888.59,602.94,902.86,607.25,914.96,615.34z"/>
				</g>
				<g>
					<path class="st6" d="M882.26,529.97c-36.46-10-75.44-4.78-105.33,0.89c-9.13,1.73-18.37,3.69-27.3,5.57
						c-24.26,5.13-49.35,10.44-74.32,11.67c-31.56,1.56-77.6-6.7-104.12-28.5l-1.82,2.22c-0.97,2.41-1.73,4.94-2.37,7.49
						c28.89,22.18,76.23,30.64,108.82,29.06c25.79-1.27,51.28-6.67,75.94-11.88c8.88-1.88,18.06-3.82,27.09-5.53
						c28.8-5.46,66.27-10.51,100.69-1.07c8.07,2.21,27.11,8.93,29.72,23.46l10.12-1.82C916.82,547.23,903.29,535.73,882.26,529.97z"
						/>
				</g>
				<g>
					<path class="st6" d="M903.83,541.6c-33.53-17.47-72.73-20.6-103.14-21.37c-9.29-0.24-18.73-0.28-27.86-0.32
						c-24.8-0.11-50.44-0.22-75.1-4.29c-31.17-5.14-74.44-22.94-95.75-49.84l-2.25,1.78c-1.46,2.16-2.73,4.46-3.9,6.82
						c23.55,27.78,68.03,46.05,100.23,51.38c25.48,4.2,51.53,4.32,76.73,4.43c9.08,0.04,18.46,0.08,27.65,0.32
						c29.3,0.74,66.99,3.72,98.65,20.21c7.42,3.87,24.61,14.45,24.09,29.2l10.28,0.36C933.96,565.78,923.17,551.68,903.83,541.6z"/>
				</g>
				<path class="st5" d="M562.15,600.68c8.34,1.21,16.59,2.34,24.86,3.28c8.26,1,16.54,1.69,24.82,2.25
					c4.14,0.33,8.29,0.37,12.44,0.6l6.23,0.07c2.08,0.07,4.16,0.08,6.23,0.02c8.33,0.06,16.62-0.61,25.03-1.07
					c-8.12,2.12-16.46,3.7-24.88,4.32c-8.41,0.76-16.88,0.86-25.3,0.38c-8.43-0.42-16.83-1.41-25.12-2.99
					C578.2,605.92,569.99,603.83,562.15,600.68z"/>
				<path class="st5" d="M797.17,583.22c9.17-4.64,19.17-7.72,29.39-9.47c10.23-1.78,20.72-2.11,31.1-1.2
					c10.38,0.91,20.63,3.2,30.38,6.8c9.73,3.61,18.99,8.55,27.06,14.95c-9.33-4.33-18.76-7.98-28.44-10.74
					c-9.66-2.77-19.54-4.65-29.5-5.65c-9.97-0.99-20.03-0.99-30.06-0.12C817.05,578.68,807.08,580.56,797.17,583.22z"/>
			</g>
			<g>
				<path class="st4" d="M1397.69,653.79c0,0-3.15-14.27-5.67-26.01c-5.52,0.05-8.09-0.27-13.55-1.39
					c-1.12-5.13-1.92-10.99-3.37-17.19c-4.34-0.16-9.32-0.8-12.05-2.41c-3.89-16.18-8.41-38.22-10.87-47.02
					c-108.21,58.27-305.01-102.64-380.77,13.71c-19.53,29.99-17.09,62.55-17.09,62.55L1397.69,653.79z"/>
				<g>
					<path class="st5" d="M1018.08,567.39c10.38-6.22,22.23-9.35,34.13-10.12c11.91-0.83,23.91,0.01,35.73,1.81
						c23.67,3.67,46.83,10.3,69.96,16.96l17.35,5.09c5.84,1.65,11.69,3.23,17.59,4.63c11.78,2.88,23.73,5.07,35.73,6.77
						c24,3.28,48.51,3.98,72.42,0.41c-12.06,0.65-24.09,0.57-36.07-0.31c-11.98-0.81-23.9-2.24-35.72-4.26
						c-11.84-1.91-23.56-4.48-35.2-7.33c-11.63-2.86-23.09-6.45-34.74-9.72c-11.61-3.31-23.26-6.54-35.06-9.27
						c-11.78-2.79-23.71-5.12-35.78-6.5c-6.03-0.69-12.1-1.2-18.19-1.3c-6.08-0.14-12.19-0.01-18.23,0.81
						C1039.94,556.57,1027.92,560.31,1018.08,567.39z"/>
				</g>
				<g>
					<path class="st5" d="M994.81,615.34c12.64-7.13,26.76-10.81,40.91-12.31c14.19-1.52,28.48-1.32,42.68-0.31
						c28.42,2.09,56.52,7.27,84.61,12.42l21.08,3.97c7.07,1.26,14.16,2.45,21.27,3.45c14.22,2.09,28.55,3.45,42.91,4.34
						c28.71,1.62,57.74,0.64,86.1-4.57c-14.32,1.37-28.63,2.04-42.93,1.92c-14.29-0.06-28.56-0.7-42.77-1.94
						c-14.22-1.13-28.36-2.93-42.45-5.01c-14.08-2.09-28.04-4.93-42.16-7.44c-14.08-2.55-28.2-5.02-42.43-6.96
						c-14.21-2-28.53-3.56-42.94-4.16c-7.2-0.34-14.42-0.41-21.64-0.1c-7.22,0.26-14.45,0.84-21.61,2
						C1021.19,602.94,1006.92,607.25,994.81,615.34z"/>
				</g>
				<g>
					<path class="st6" d="M1027.51,529.97c36.46-10,75.44-4.78,105.33,0.89c9.13,1.73,18.37,3.69,27.3,5.57
						c24.26,5.13,49.35,10.44,74.32,11.67c31.56,1.56,77.6-6.7,104.12-28.5l1.82,2.22c0.97,2.41,1.73,4.94,2.37,7.49
						c-28.89,22.18-76.22,30.64-108.82,29.06c-25.79-1.27-51.28-6.67-75.94-11.88c-8.88-1.88-18.06-3.82-27.09-5.53
						c-28.8-5.46-66.27-10.51-100.69-1.07c-8.07,2.21-27.11,8.93-29.72,23.46l-10.12-1.82
						C992.96,547.23,1006.49,535.73,1027.51,529.97z"/>
				</g>
				<g>
					<path class="st6" d="M1014.94,533.56c34.96-14.38,74.29-13.96,104.65-12c9.28,0.6,18.68,1.41,27.78,2.19
						c24.71,2.13,50.25,4.32,75.18,2.49c31.51-2.31,76.2-16.14,99.85-41.01l2.08,1.98c1.26,2.28,2.32,4.69,3.27,7.15
						c-25.96,25.54-71.91,39.73-104.45,42.14c-25.75,1.89-51.71-0.35-76.82-2.51c-9.04-0.78-18.39-1.58-27.56-2.18
						c-29.25-1.9-67.06-2.33-100.07,11.24c-7.73,3.18-25.81,12.18-26.63,26.91l-10.27-0.57
						C982.76,554.92,994.78,541.85,1014.94,533.56z"/>
				</g>
				<path class="st5" d="M1347.62,600.68c-8.34,1.21-16.59,2.34-24.86,3.28c-8.26,1-16.54,1.69-24.82,2.25
					c-4.14,0.33-8.29,0.37-12.44,0.6l-6.23,0.07c-2.08,0.07-4.16,0.08-6.23,0.02c-8.33,0.06-16.62-0.61-25.03-1.07
					c8.12,2.12,16.46,3.7,24.87,4.32c8.41,0.76,16.88,0.86,25.3,0.38c8.43-0.42,16.83-1.41,25.12-2.99
					C1331.58,605.92,1339.79,603.83,1347.62,600.68z"/>
				<path class="st5" d="M1112.61,583.22c-9.17-4.64-19.17-7.72-29.39-9.47c-10.23-1.78-20.72-2.11-31.09-1.2
					c-10.38,0.91-20.63,3.2-30.38,6.8c-9.73,3.61-18.99,8.55-27.06,14.95c9.33-4.33,18.76-7.98,28.44-10.74
					c9.66-2.77,19.54-4.65,29.5-5.65c9.97-0.99,20.03-0.99,30.06-0.12C1092.73,578.68,1102.7,580.56,1112.61,583.22z"/>
			</g>
			<path class="st7" d="M884.12,627.03l146.47,0.01c0,0-17.94,52.04-73.21,53.97C957.38,681.01,905.97,684.87,884.12,627.03z"/>
			<g>
				<g>
					<path class="st8" d="M510.73,670.73c-7.54,0-13.8-5.95-14.12-13.55c-0.32-7.8,5.74-14.39,13.54-14.71l370.81-15.42
						c7.77-0.3,14.39,5.74,14.71,13.54c0.33,7.8-5.74,14.39-13.54,14.71l-370.81,15.42C511.13,670.73,510.93,670.73,510.73,670.73z"
						/>
				</g>
				<g>
					<path class="st8" d="M1400.81,670.73c-0.2,0-0.4-0.01-0.6-0.01l-370.8-15.42c-7.8-0.32-13.86-6.91-13.54-14.71
						c0.33-7.8,6.9-13.82,14.71-13.54l370.8,15.42c7.8,0.32,13.86,6.91,13.54,14.71C1414.61,664.78,1408.35,670.73,1400.81,670.73z"
						/>
				</g>
				<g>
					<path class="st8" d="M955.45,699.86c-34.99,0-67.44-18.93-84.69-49.41c-3.85-6.8-1.45-15.42,5.34-19.27
						c6.79-3.84,15.42-1.46,19.27,5.34c12.24,21.63,35.26,35.06,60.08,35.06c24.42,0,47.26-13.11,59.6-34.23
						c3.94-6.75,12.61-9.01,19.34-5.07c6.74,3.94,9.01,12.6,5.07,19.34C1022.07,681.38,989.88,699.86,955.45,699.86z"/>
				</g>
			</g>
		</g>
	</g>
</g>
<g id="hat">
	<g>
		<path class="st9" d="M1723.52,110.55l-13.49,41.83c0,0,35.89,22.41,42.14,30.26c0,0,0.31-0.07,0.85-0.21
			c6.68-20.71,12.54-41.37,17.94-62.15L1723.52,110.55z"/>
		<path class="st10" d="M1770.97,120.29c-5.41,20.78-11.26,41.44-17.94,62.15c5.99-1.44,42.66-10.04,49.58-7l11.52-46.29
			L1770.97,120.29z"/>
		<g>
			<path class="st11" d="M1709.7,100.21l49.94,37.38c0,0,4.53,5.75,12.04,3.96c7.52-1.78,58-8.36,58-8.36s11.1-3.14,7.96-7.38
				c-3.15-4.24-48.2-32.56-48.2-32.56s-6.02-4.37-12.34-3.63c-6.32,0.74-61.37,3.5-61.37,3.5S1706.81,94.99,1709.7,100.21z"/>
			<path class="st12" d="M1712.34,97.67l49.94,37.38c0,0,4.53,5.74,12.04,3.96c7.52-1.77,58-8.36,58-8.36s7.83-1.8,4.69-6.04
				c-3.15-4.24-44.93-33.89-44.93-33.89s-6.02-4.37-12.34-3.63c-6.32,0.74-59.14,5.57-59.14,5.57S1709.44,92.45,1712.34,97.67z"/>
		</g>
		<g>
			<path class="st13" d="M1775.26,109.29c18.74,3.54,11.67,29.55,7.76,41.86c-6.14,19.3,0.59,43.05,20.46,51.52
				c1.61,0.69,2.78-1.62,1.22-2.44c-12.54-6.53-20.35-18.61-21.45-32.71c-0.89-11.34,5.76-21.25,6.8-32.26
				c0.8-8.4-1.15-30.95-14.87-27.3C1774.5,108.15,1774.62,109.17,1775.26,109.29L1775.26,109.29z"/>
		</g>
		<path class="st13" d="M1802.75,203.77c0,0-0.7,4.54,4.93,10.27c2.46,2.83,2.75,5.93,2.75,5.93s3.63-0.89,6.29-4.31l-3.63-4.23
			l5.01,3.13c0,0,2.51-2.51,3.35-5.02c-0.8-0.17-3.24-1.68-3.24-1.68l4.72,0.57c0,0,0.56-1.71,0.73-4.13c0,0-3.01,0.04-6.35-1.52
			C1813.96,201.24,1804.72,196.61,1802.75,203.77z"/>
		<path class="st8" d="M1803.04,199.33c0,0-3.03,3.18-1.03,4.6c1.99,1.43,3.83-1.13,4.82-2.99
			C1807.82,199.08,1804.59,196.9,1803.04,199.33z"/>
	</g>
</g>
<g id="pencial">
	<g>
		<path class="st14" d="M233.7,237.97c-4.83,2.79-3.46,11.58-1.38,18.65c6.97-4.79,12.93-10.92,17.16-18.29
			C243.88,236.66,237.62,235.72,233.7,237.97z"/>
		<path class="st15" d="M253.39,272.93l12.97-19.38l-4.68-10.32c0,0-5.66-2.95-12.2-4.9c-4.23,7.36-10.19,13.5-17.16,18.29
			c1.58,5.37,3.56,9.74,3.56,9.74L253.39,272.93z"/>
		<path class="st16" d="M341.87,372.94c3.73-1.7,10.97-8.96,16.07-14.97c5.11-6.01-0.23-9.52-0.23-9.52l-7.5-6.62l-6.33,5.64
			c-2.65,8.59-4.39,17.46-5.19,26.4C339.7,373.74,340.75,373.45,341.87,372.94z"/>
		<path class="st17" d="M332.21,371.45c2.09,1.94,4.16,2.7,6.49,2.41c0.8-8.94,2.54-17.8,5.19-26.4l-19.02,16.94
			C324.86,364.41,329.21,368.66,332.21,371.45z"/>
		<path class="st18" d="M318.77,355.94c0,0,11.25-7.18,23.94-20.73c0,0,2.97-2.22,5.35,0.33c2.37,2.55,4.58,3.63,2.16,6.28
			c-2.42,2.66-21.48,21.13-25.35,22.58C322.65,365.25,316.38,357.59,318.77,355.94z"/>
		<g>
			<path class="st8" d="M237.95,265.78c-2.09-0.61-2.07,0.59-2.07,0.59l82.88,89.58c1.76-0.87,3.79-2.24,5.9-3.86l-78.2-84.28
				C244.26,269.63,239.93,266.35,237.95,265.78z"/>
			<path class="st7" d="M259.39,244.76c-0.96,2.1,2.14,7.34,0.45,9.56l78.89,85.03c2.41-2.44,3.98-4.12,3.98-4.12l-81.03-91.98
				C261.68,243.24,260.43,242.47,259.39,244.76z"/>
			<path class="st13" d="M259.3,254.82c-2.81,1.8-9.42-1.86-12.37,0.77c-2.95,2.64-0.09,11.83-0.09,11.83
				c-0.12,0.15-0.25,0.27-0.38,0.38l78.2,84.28c5-3.84,10.47-9.12,14.06-12.74l-78.89-85.03
				C259.7,254.51,259.53,254.69,259.3,254.82z"/>
		</g>
	</g>
</g>
<g id="star_x5F_right">
	<path class="st6" d="M1078.88,430.48l-7.08-15.81l-6.37,15.86l-15.8,7.08l15.85,6.38l7.07,15.81l6.38-15.86l15.8-7.08
		L1078.88,430.48z"/>
</g>
<g id="star_x5F_left">
	<path class="st6" d="M470.58,239.39l2.7-19.23l-15.51,11.26l-19.22-2.7l11.25,15.51l-2.71,19.23l15.51-11.25l19.22,2.7
		L470.58,239.39z"/>
</g>
<g id="dot_x5F_orange">
	<path class="st19" d="M1281.35,403.88c0.91,5.64-2.93,10.95-8.58,11.85c-5.64,0.91-10.94-2.94-11.85-8.57
		c-0.9-5.64,2.94-10.95,8.58-11.86C1275.14,394.4,1280.45,398.24,1281.35,403.88z"/>
</g>
<g id="dot_x5F_pink">
	<path class="st16" d="M1225.98,451.11c0.9,5.64-2.93,10.95-8.58,11.85c-5.64,0.91-10.94-2.93-11.85-8.57
		c-0.9-5.64,2.94-10.95,8.58-11.86C1219.77,441.63,1225.08,445.47,1225.98,451.11z"/>
</g>
<g id="line_x5F_circle">
	<g>
		<path class="st8" d="M898.85,418.09c2.47,4.26,1.01,9.72-3.25,12.18c-4.26,2.47-9.72,1.01-12.18-3.26
			c-2.47-4.26-1.01-9.72,3.25-12.18C890.94,412.37,896.39,413.82,898.85,418.09z"/>
		<g>
			<path class="st6" d="M879.81,408.8c-9.15,10.45-44.25,41.7-28.1,58.16c11.55,11.78,36.65-17.02,43.28-23.91
				c9.85-10.23,18.78-21.39,26.76-33.12c5.25-7.71,13.3-18.41,12.02-28.26c-0.96-7.31-10.79-4.71-15.11-3.17
				C903.41,383.93,890.3,396.94,879.81,408.8c-1.29,1.46,1.02,3.39,2.3,1.94c8.48-9.59,17.85-18.06,28.69-24.9
				c4.36-2.75,9.16-5.05,14.25-6.04c10.24-1.99,3.87,11.76,2.1,15.33c-8.42,17.01-21.55,32.27-34.46,45.99
				c-5.45,5.79-28.16,31.55-38.35,24.26c-10.45-7.48,4.55-27.51,9.23-33.6c5.7-7.42,12.39-14.01,18.54-21.04
				C883.41,409.27,881.09,407.34,879.81,408.8z"/>
		</g>
		<g>
			<path class="st6" d="M898.18,406.47c-13.6-2.8-58.11-17.87-64.45,4.3c-4.53,15.86,32.91,23.45,42.18,25.82
				c13.75,3.51,27.88,5.76,42.01,6.91c9.3,0.75,22.58,2.47,30.51-3.52c5.89-4.45-1.24-11.71-4.71-14.71
				C931.45,414.7,913.67,409.72,898.18,406.47c-1.9-0.4-2.44,2.56-0.55,2.97c12.53,2.62,24.53,6.59,35.82,12.63
				c4.55,2.43,8.92,5.48,12.3,9.41c6.8,7.91-8.31,9.17-12.28,9.39c-18.95,1.09-38.7-2.78-57.01-7.24
				c-7.72-1.87-41.35-8.89-40.03-21.35c1.34-12.78,26.16-9.64,33.77-8.58c9.27,1.29,18.3,3.85,27.45,5.74
				C899.54,409.82,900.08,406.86,898.18,406.47z"/>
		</g>
		<g>
			<path class="st6" d="M909.2,420.69c-4.71-13.06-15.06-58.9-37.28-52.74c-15.89,4.41-2.85,40.31-0.04,49.45
				c4.18,13.56,9.62,26.79,16.01,39.45c4.2,8.32,9.66,20.55,18.91,24.19c6.86,2.71,9.34-7.15,10.09-11.68
				C919.53,453.38,914.5,435.61,909.2,420.69c-0.66-1.83-3.46-0.74-2.81,1.08c4.28,12.06,7.15,24.37,7.89,37.15
				c0.3,5.15-0.02,10.47-1.62,15.4c-3.21,9.92-12.16-2.31-14.43-5.59c-10.8-15.59-17.8-34.47-23.55-52.42
				c-2.43-7.57-13.97-39.91-2.66-45.29c11.6-5.52,21.86,17.3,24.93,24.34c3.73,8.58,6.26,17.62,9.43,26.41
				C907.04,423.61,909.85,422.52,909.2,420.69z"/>
		</g>
		<path class="st20" d="M928.34,441.08c1.2,2.06,0.49,4.72-1.58,5.92c-2.07,1.2-4.72,0.48-5.92-1.58c-1.2-2.07-0.49-4.72,1.58-5.92
			C924.5,438.29,927.15,439,928.34,441.08z"/>
		<path class="st20" d="M867.2,464.27c1.2,2.07,0.49,4.72-1.58,5.92c-2.07,1.2-4.72,0.49-5.92-1.58c-1.2-2.07-0.49-4.72,1.59-5.92
			C863.35,461.49,866,462.19,867.2,464.27z"/>
		<path class="st20" d="M870.26,378.35c1.2,2.07,0.49,4.72-1.58,5.92c-2.07,1.19-4.72,0.49-5.92-1.59c-1.2-2.07-0.49-4.72,1.58-5.92
			C866.41,375.57,869.06,376.28,870.26,378.35z"/>
	</g>
</g>
<g id="platte">
	<g>
		<g>
			<path class="st21" d="M1574.09,347.71c14.97,19.2,80.73,61.8,111.03,22.48c30.29-39.32-21.68-97.18-45.95-104.94
				c-24.27-7.78-31.86,6.1-27.52,14.32c4.33,8.21-0.76,10.66-3.51,10.46c-8.71-0.62-20.6-10.76-35.72,0.79
				C1557.3,302.37,1559.13,328.51,1574.09,347.71z M1623.53,298.76c5.81,5.55,7.46,13.23,3.7,17.16
				c-3.75,3.92-11.51,2.61-17.31-2.94c-5.81-5.55-7.46-13.24-3.71-17.16C1609.98,291.88,1617.73,293.2,1623.53,298.76z"/>
		</g>
		<g>
			<path class="st22" d="M1574.16,350.95c14.97,19.2,80.73,61.8,111.03,22.48c3.6-4.68,6.03-9.62,7.49-14.72
				c-18.78-19.84-40.57-36.32-64.32-49.74c1.51,3.9,1.26,7.76-1.06,10.18c-3.75,3.93-11.51,2.61-17.31-2.94
				c-5.81-5.56-7.46-13.24-3.71-17.16c0.34-0.35,0.72-0.65,1.11-0.92c-7.23-3.41-14.61-6.55-22.09-9.46
				c-3.98,0.39-8.25,1.89-12.82,5.38C1557.37,305.62,1559.19,331.76,1574.16,350.95z"/>
			<path class="st23" d="M1623.6,302c2.22,2.13,3.83,4.56,4.77,6.98c23.75,13.42,45.54,29.9,64.32,49.74
				c10.8-37.66-32.07-83.38-53.45-90.23c-24.27-7.77-31.86,6.11-27.52,14.32c4.34,8.21-0.75,10.66-3.51,10.47
				c-6.08-0.43-13.71-5.5-22.9-4.59c7.48,2.91,14.86,6.05,22.09,9.46C1611.43,295.42,1618.32,296.94,1623.6,302z"/>
		</g>
		<g>
			<path class="st17" d="M1571.98,317.96c-1.3,4.42-0.79,9.74,4.57,13.58c8.2,5.87,14.59-0.4,16.3-7.63
				C1585.07,324.27,1577.46,322.64,1571.98,317.96z"/>
			<path class="st16" d="M1590.8,312.81c-6.97-7.49-11.52-4.38-14.33-2.09c-1.69,1.37-3.55,4.08-4.49,7.25
				c5.48,4.68,13.08,6.3,20.87,5.95C1593.81,319.86,1593.31,315.5,1590.8,312.81z"/>
		</g>
		<g>
			<path class="st8" d="M1592.25,351.77c0.17,4.61,2.34,9.49,8.64,11.43c9.63,2.96,13.71-5.01,13.04-12.4
				C1606.65,353.59,1598.93,354.47,1592.25,351.77z"/>
			<path class="st8" d="M1608.46,340.91c-8.98-4.9-12.31-0.5-14.25,2.56c-1.16,1.83-2.07,5-1.95,8.3c6.67,2.7,14.4,1.82,21.68-0.98
				C1613.55,346.64,1611.69,342.67,1608.46,340.91z"/>
		</g>
		<g>
			<path class="st24" d="M1629.25,372.05c2.34,3.98,6.57,7.23,13.03,5.95c9.88-1.97,9.68-10.92,5.57-17.11
				C1642.8,366.8,1636.41,371.25,1629.25,372.05z"/>
			<path class="st18" d="M1638.34,354.79c-10.23-0.03-11.07,5.42-11.32,9.03c-0.15,2.17,0.55,5.38,2.23,8.22
				c7.15-0.8,13.54-5.25,18.6-11.17C1645.55,357.41,1642.02,354.8,1638.34,354.79z"/>
		</g>
		<g>
			<path class="st25" d="M1661.73,363.13c3,3.5,7.74,5.97,13.88,3.56c9.38-3.67,7.61-12.45,2.48-17.82
				C1674.14,355.6,1668.64,361.09,1661.73,363.13z"/>
			<path class="st26" d="M1667.66,344.55c-10.08,1.76-9.94,7.28-9.56,10.88c0.23,2.16,1.49,5.2,3.64,7.71
				c6.91-2.04,12.41-7.54,16.36-14.26C1675.21,345.86,1671.28,343.92,1667.66,344.55z"/>
		</g>
		<g>
			<path class="st27" d="M1658.61,348.18c11.62,15.34,29.13,34.34,43.76,32.98c3.96-0.37,2.79-3.99,1.96-7.44
				c-0.59-2.4-2.06-5.34-4.16-8.59C1685.71,362.4,1671.53,356.09,1658.61,348.18z"/>
			<path class="st28" d="M1653.19,321.47l-7.38,7.99c0,0,5.12,8.56,12.81,18.72c12.92,7.91,27.09,14.22,41.55,16.96
				C1688.69,347.42,1658.51,320.46,1653.19,321.47z"/>
			<g>
				<path class="st29" d="M1647.51,316.68c-2.2-6.22-5.75-12.45-11.62-15.91c-4.07-2.41-8.22-3.06-12.6-3.14
					c4.24,0.96,8.21,1.64,11.97,4.76c2.18,1.8,4.27,3.71,5.64,6.23c1.76,3.25,3.02,6.68,6.12,8.95c0.22,0.16,0.01,0.51-0.23,0.36
					c-4.59-2.82-5.2-8.59-8.96-12.21c-3.62-3.5-7.51-6.1-12.57-6.9c-1.12-0.18-2.21-0.36-3.28-0.59c1.49,0.96,2.98,2.08,4.46,2.66
					c2.19,0.85,4.51,2.3,6.1,4.08c4.57,5.11,6.57,11.29,12.19,15.64c0.18,0.15,0.01,0.43-0.2,0.31c-4.95-3.05-6.84-7.37-9.96-12.01
					c-2.86-4.26-6.08-5.9-10.61-8.06c-0.24-0.12-0.49-0.26-0.73-0.4c6.82,7.16,9.53,17.88,20.38,21.34
					c0.12,0.03,0.06,0.21-0.06,0.19c-13.09-2.53-14.89-17.89-24.88-24.25c0,0-0.01,0-0.01-0.01c9.65,6.87,5.66,26.31,21.91,25.49
					c0.17-0.01,0.23,0.18,0.17,0.31c1.08-0.43,5.53-2.43,6.93-6.65C1647.62,316.84,1647.54,316.79,1647.51,316.68z"/>
				<path class="st29" d="M1618.63,298.65c0.03,0.05,0.05,0.09,0.08,0.14c4.52,5.43,0,7.35,5.83,16.9
					c3.32,5.45,8.05,7.25,11.51,7.79C1625.48,321.27,1625.71,304.98,1618.63,298.65z"/>
				<path class="st29" d="M1647.72,315.18c-1.7-16.32-22.85-20.46-28.19-18.54c0.47,0.15,0.95,0.28,1.43,0.41
					C1633.5,295.69,1643.38,303.48,1647.72,315.18z"/>
				<path class="st30" d="M1618.97,297.5c-0.04,0-0.07,0-0.11,0c9.9,6.5,11.48,21.89,24.52,24.6c0.12,0.03,0.19-0.14,0.07-0.18
					c-10.8-3.61-13.35-14.38-20.07-21.64C1621.95,299.37,1620.52,297.99,1618.97,297.5z"/>
				<path class="st30" d="M1623.38,300.28c0.24,0.15,0.48,0.3,0.72,0.42c4.49,2.23,7.69,3.92,10.48,8.21
					c3.05,4.69,4.88,9.03,9.79,12.16c0.21,0.12,0.39-0.17,0.21-0.31c-5.56-4.44-7.46-10.64-11.97-15.81
					c-1.56-1.8-3.87-3.29-6.04-4.17c-1.47-0.59-2.94-1.73-4.42-2.72c-0.55-0.13-1.09-0.26-1.63-0.41
					C1621.56,298.46,1622.5,299.34,1623.38,300.28z"/>
				<path class="st30" d="M1619.95,297.48c-0.33,0.01-0.65,0.01-0.98,0.02c1.55,0.5,2.98,1.87,4.41,2.78
					c-0.88-0.94-1.82-1.83-2.86-2.62C1620.33,297.6,1620.14,297.54,1619.95,297.48z"/>
				<path class="st30" d="M1618.81,297.18c0.05-0.01,0.08-0.01,0.12-0.02c-0.03-0.01-0.06-0.02-0.1-0.03
					c-0.06-0.02-0.11-0.05-0.15-0.08c-0.06,0.07-0.13,0.14-0.17,0.22c0.07,0.04,0.12,0.09,0.18,0.13
					C1618.68,297.3,1618.71,297.2,1618.81,297.18z"/>
				<path class="st30" d="M1622.14,298.07c1.07,0.24,2.16,0.45,3.27,0.64c5.05,0.87,8.9,3.53,12.47,7.08
					c3.7,3.67,4.24,9.44,8.78,12.33c0.23,0.14,0.45-0.2,0.23-0.36c-3.07-2.31-4.29-5.76-6-9.03c-1.33-2.54-3.4-4.48-5.55-6.32
					c-3.72-3.17-7.69-3.9-11.91-4.92c-0.75-0.03-1.51-0.04-2.28-0.03C1621.49,297.65,1621.82,297.85,1622.14,298.07z"/>
				<path class="st30" d="M1620.27,296.99c0.28-0.04,0.56-0.09,0.84-0.11c-0.47-0.13-0.95-0.28-1.42-0.43
					c-0.14,0.05-0.28,0.1-0.39,0.16C1619.62,296.71,1619.95,296.83,1620.27,296.99z"/>
				<path class="st30" d="M1620.28,297.47c0.08,0.06,0.16,0.12,0.24,0.19c0.54,0.15,1.08,0.28,1.63,0.41
					c-0.33-0.22-0.65-0.42-0.98-0.61C1620.87,297.46,1620.57,297.47,1620.28,297.47z"/>
				<path class="st30" d="M1620.27,296.99c-0.33-0.15-0.65-0.28-0.98-0.39c-0.06,0.02-0.11,0.05-0.15,0.08
					c0.19,0.13,0.38,0.25,0.56,0.38C1619.9,297.03,1620.08,297.01,1620.27,296.99z"/>
				<path class="st30" d="M1620.51,297.66c-0.08-0.06-0.15-0.13-0.24-0.19c-0.1,0-0.22,0.01-0.33,0.01
					C1620.14,297.54,1620.33,297.6,1620.51,297.66z"/>
				<path class="st30" d="M1618.84,297.13c0.03,0.01,0.07,0.02,0.1,0.03c0.26-0.05,0.51-0.07,0.77-0.1
					c-0.19-0.13-0.37-0.26-0.56-0.38c-0.19,0.11-0.34,0.23-0.45,0.36C1618.73,297.08,1618.78,297.11,1618.84,297.13z"/>
				<path class="st30" d="M1635.84,323.52c1.34,0.3,2.85,0.39,4.59,0.2c0.08-0.01,0.11-0.05,0.14-0.11
					c-0.15,0.06-0.25,0.09-0.25,0.09S1638.44,323.97,1635.84,323.52z"/>
				<path class="st30" d="M1640.4,323.3c-16.27,0.58-12-18.8-21.55-25.8c0,0-0.01,0-0.01,0c-0.07,0-0.1-0.04-0.12-0.08
					c-0.04-0.01-0.07-0.03-0.11-0.04c-0.04,0-0.06-0.02-0.09-0.04c-0.12,0.32-0.03,0.69,0.26,1.1c6.99,6.43,6.53,22.72,17.06,25.08
					c2.6,0.45,4.48,0.17,4.48,0.17s0.09-0.03,0.25-0.09C1640.62,323.49,1640.57,323.3,1640.4,323.3z"/>
				<path class="st30" d="M1618.51,297.34c0-0.02,0.01-0.04,0.02-0.06c0,0,0,0,0,0c-0.03-0.02-0.05-0.05-0.07-0.07
					c-0.05-0.03-0.1-0.05-0.14-0.06C1618.34,297.23,1618.41,297.29,1618.51,297.34z"/>
				<path class="st30" d="M1618.52,297.28c-0.01,0.02-0.01,0.04-0.02,0.06c0.03,0.01,0.06,0.03,0.09,0.04
					c0.04,0.01,0.07,0.03,0.11,0.04c-0.01-0.01-0.01-0.02-0.01-0.02C1618.64,297.36,1618.58,297.32,1618.52,297.28z"/>
				<path class="st30" d="M1647.62,315.38c-4.16-11.75-13.94-19.69-26.51-18.5c0.79,0.22,1.57,0.42,2.34,0.61
					c4.38,0.13,8.52,0.84,12.56,3.31c5.81,3.56,9.27,9.83,11.38,16.08c0.04,0.1,0.11,0.16,0.2,0.18c0.05-0.12,0.09-0.23,0.12-0.35
					C1647.7,316.26,1647.66,315.82,1647.62,315.38z"/>
				<path class="st30" d="M1618.75,297.43c0.04,0.02,0.07,0.05,0.1,0.07c0,0,0.01,0,0.01,0
					C1618.82,297.48,1618.79,297.45,1618.75,297.43L1618.75,297.43z"/>
				<path class="st30" d="M1618.75,297.43c0.03,0.02,0.07,0.05,0.1,0.07c0.04,0,0.07,0,0.11,0
					C1618.9,297.47,1618.83,297.45,1618.75,297.43z"/>
				<path class="st30" d="M1618.75,297.43L1618.75,297.43C1618.75,297.42,1618.74,297.42,1618.75,297.43
					C1618.74,297.42,1618.75,297.42,1618.75,297.43z"/>
				<path class="st30" d="M1618.81,297.18c-0.1,0.02-0.13,0.12-0.11,0.21c0.01,0.01,0.02,0.02,0.04,0.03c0,0,0,0.01,0.01,0.01
					c0.07,0.02,0.14,0.04,0.22,0.07c0.33-0.01,0.65-0.01,0.98-0.02c-0.34-0.11-0.68-0.2-1.01-0.32
					C1618.9,297.17,1618.86,297.17,1618.81,297.18z"/>
				<path class="st30" d="M1621.16,297.46c0.77-0.01,1.53,0,2.28,0.03c-0.77-0.19-1.55-0.39-2.34-0.61
					c-0.28,0.02-0.56,0.08-0.84,0.11C1620.57,297.13,1620.87,297.29,1621.16,297.46z"/>
				<path class="st30" d="M1620.28,297.47c0.3,0,0.59-0.01,0.89-0.01c-0.3-0.17-0.59-0.33-0.89-0.47c-0.19,0.02-0.37,0.04-0.57,0.08
					C1619.9,297.2,1620.09,297.34,1620.28,297.47z"/>
				<path class="st30" d="M1618.94,297.17c0.34,0.12,0.68,0.21,1.01,0.32c0.1,0,0.22-0.01,0.33-0.01c-0.18-0.13-0.38-0.27-0.57-0.41
					C1619.45,297.1,1619.2,297.12,1618.94,297.17z"/>
				<path class="st30" d="M1618.71,297.42c0.02,0.05,0.05,0.09,0.12,0.08c0,0,0.01,0,0.01,0c-0.03-0.02-0.06-0.05-0.1-0.07
					C1618.74,297.42,1618.73,297.42,1618.71,297.42z"/>
				<path class="st30" d="M1618.74,297.42c-0.02,0-0.03-0.01-0.04-0.02c0,0.01,0,0.01,0.01,0.02
					C1618.73,297.42,1618.74,297.42,1618.74,297.42C1618.75,297.42,1618.74,297.42,1618.74,297.42z"/>
				<path class="st30" d="M1618.71,297.4c0.01,0.01,0.02,0.02,0.04,0.02C1618.73,297.41,1618.72,297.4,1618.71,297.4L1618.71,297.4z
					"/>
			</g>
			<path class="st17" d="M1645.8,329.46c5.45-1.33,7.38-7.99,7.38-7.99c-0.08-0.13-0.16-0.23-0.24-0.36
				c-4.11,1.67-8.38,2.46-12.46,1.83C1639.23,327.19,1645.8,329.46,1645.8,329.46z"/>
			<path class="st16" d="M1641.07,321.65c-0.29,0.45-0.46,0.88-0.58,1.3c4.08,0.63,8.35-0.16,12.46-1.83
				C1648.35,313.87,1644.26,316.65,1641.07,321.65z"/>
		</g>
	</g>
</g>
<g id="rocket">
	<g>
		<path class="st31" d="M356.71,505.18c6.08-15.33,6.75-28.56-3.27-35.46c-12.45-8.58-26.46-3.77-40.01,7.23
			C325.85,489.28,340.66,498.63,356.71,505.18z"/>
		<path class="st31" d="M251.62,564.18c0,0-31.95,21.98-28.92,37.23c3.03,15.25,18.42,4.5,18.42,4.5s-24.22,22.86-10.85,34.67
			c13.37,11.81,26.01-14.01,26.01-14.01s-0.35,4.78,7.48,10.49c13.89,10.13,29.11-42.8,29.11-42.8L251.62,564.18z"/>
		<path class="st13" d="M258.43,569.15c0,0-21.94,15.09-19.86,25.57c2.08,10.47,12.65,3.08,12.65,3.08s-16.63,15.7-7.45,23.81
			c9.18,8.1,17.87-9.62,17.87-9.62s-0.24,3.28,5.13,7.2c9.54,6.95,20-29.39,20-29.39L258.43,569.15z"/>
		<path class="st6" d="M313.43,476.94c-24.85,20.17-48.16,61.17-57.5,78.83c27.61-1.6,55.3-6.58,81.15-15.58
			c8.03-11.72,15.24-23.92,19.63-35.01C340.66,498.63,325.85,489.28,313.43,476.94z"/>
		<path class="st32" d="M251.62,564.18c11.61,23.64,41.27,30.08,41.27,30.08c-1.36,1.87,24-24.58,44.2-54.07
			c-25.85,9-53.54,13.98-81.15,15.58C253.17,560.98,251.62,564.18,251.62,564.18z"/>
		<g>
			<path class="st33" d="M334.36,533.12c-6.15,8.44-19.88,12.52-29.25,5.68c-9.38-6.84-14.37-19.39-6.61-30.02
				c6.15-8.44,19.26-11.16,28.64-4.32C336.51,511.29,340.5,524.68,334.36,533.12z"/>
			
				<linearGradient id="SVGID_1_" gradientUnits="userSpaceOnUse" x1="524.5843" y1="824.5098" x2="559.8356" y2="824.5098" gradientTransform="matrix(0.8081 0.589 -0.589 0.8081 363.4699 -464.1137)">
				<stop  offset="4.340300e-04" style="stop-color:#3FB2A2"/>
				<stop  offset="0.9911" style="stop-color:#63BFD9"/>
			</linearGradient>
			<path class="st34" d="M325.05,507.63c-4.61-3.37-10.33-3.88-15.24-2.25c-3.21,1.06-6.08,3.05-8.06,5.77
				c-6.31,8.65-2.25,18.87,5.38,24.42c6.23,4.55,14.84,3.16,20.5-1.25c1.27-0.98,2.39-2.12,3.3-3.37
				C335.94,524.1,332.69,513.19,325.05,507.63z"/>
		</g>
		<path class="st33" d="M271.57,525.06c0,0-32.93-3.37-40.01,14.82c-7.08,18.19-7.31,21.2-4.1,25.17c4.2,5.21,27.81-5.65,27.81-5.65
			L271.57,525.06z"/>
		
			<linearGradient id="SVGID_00000118378835570034023480000006960989503357199526_" gradientUnits="userSpaceOnUse" x1="485.8602" y1="879.3467" x2="517.1104" y2="879.3467" gradientTransform="matrix(0.8081 0.589 -0.589 0.8081 363.4699 -464.1137)">
			<stop  offset="4.340300e-04" style="stop-color:#3FB2A2"/>
			<stop  offset="0.9911" style="stop-color:#63BFD9"/>
		</linearGradient>
		<path style="fill:url(#SVGID_00000118378835570034023480000006960989503357199526_);" d="M274.87,523.35c0,0-32.92-3.37-40,14.82
			c-7.07,18.2-8.15,22.07-4.1,25.17c5.14,3.94,27.82-5.64,27.82-5.64L274.87,523.35z"/>
		<path class="st33" d="M321.03,561.67c0,0,14.89,29.56,0.42,42.66c-14.48,13.1-17.2,14.38-22.06,12.81c-6.36-2.07-4.63-28-4.63-28
			L321.03,561.67z"/>
		
			<linearGradient id="SVGID_00000004517522442480424360000006765084780950348479_" gradientUnits="userSpaceOnUse" x1="1945.7781" y1="842.2905" x2="1977.0243" y2="842.2905" gradientTransform="matrix(-0.8384 -0.545 -0.545 0.8384 2416.2158 949.8682)">
			<stop  offset="4.340300e-04" style="stop-color:#3FB2A2"/>
			<stop  offset="0.9911" style="stop-color:#63BFD9"/>
		</linearGradient>
		<path style="fill:url(#SVGID_00000004517522442480424360000006765084780950348479_);" d="M321.44,557.98
			c0,0,14.89,29.55,0.42,42.65c-14.48,13.1-17.72,15.49-22.06,12.81c-5.5-3.4-4.63-28.01-4.63-28.01L321.44,557.98z"/>
	</g>
</g>
<g id="lightBall">
	<g>
		<path class="st13" d="M179.36,119.92c-3.57-5.39-7.77-10.57-12.47-15.44c-9.36-9.47-12.29-26.28-9.3-41.36
			c-2.64,1.42-5.12,3.34-7.39,5.81c-9.28,10.08-7.76,23.7-7.16,34.96c0.61,11.43-3.93,20.11-3.93,20.11l12.95,6.44l12.95,6.45
			c0,0,3.71-9.1,12.7-15.75C178.24,120.73,178.79,120.33,179.36,119.92z"/>
		<path class="st8" d="M166.88,104.47c4.7,4.87,8.9,10.05,12.47,15.44c8.54-6.25,18.51-13.47,20.2-26.42
			c1.71-13.07-4.6-23.82-16.57-29.78c-8.88-4.42-17.81-4.67-25.41-0.6C154.59,78.2,157.52,95.01,166.88,104.47z"/>
		<g>
			<path class="st6" d="M145.01,128.05c4.27-7.17,7.9-14.59,10.08-22.75c1.16-4.33,3.1-11.74,0.64-16.14
				c-2.71-4.87-7.97,0.08-7.76,3.95c0.36,6.6,6.96,8.38,12.61,7.9c6.46-0.55,12.08-5.45,14.83-10.98c2.52-5.05-0.91-11.99-6.85-8.12
				c-5.2,3.38-2.98,13.61-0.83,18.46c2.44,5.52,8.73,9.62,14.09,5.8c2.28-1.63,3.59-7.1-0.02-8.53c-5.23-2.07-9.59,3.87-12.08,7.34
				c-5.89,8.17-11.3,19.15-11.15,29.65c0.02,1.49,2.3,1.37,2.3-0.09c0.04-10.87,5.91-22.12,12.33-30.33
				c1.08-1.39,2.31-2.63,3.74-3.65c1.73-1.23,4.94-1.61,4.7,1.43c-0.41,5.16-7.25,3.7-9.89,1.16c-2.61-2.52-3.67-6.39-4.1-9.76
				c-0.23-1.88-0.32-3.73-0.16-5.61c0.1-0.89,0.33-1.74,0.68-2.55c0.94-2.43,5.36-4.56,6.21,0.17c0.65,3.62-2.67,7.1-4.96,9.33
				c-2.57,2.5-5.37,3.99-9.01,4.51c-3.22,0.46-8.74-0.03-10.3-3.64c-0.69-1.62-0.52-3.53,0.13-5.05c0.94-1.58,2.2-1.89,3.79-0.92
				c0.53,0.68,0.62,1.71,0.75,2.51c0.77,5.13-0.71,10.74-2.04,15.54c-1.95,7.02-5.21,13.59-8.59,19.96
				C143.87,128.15,144.72,128.55,145.01,128.05L145.01,128.05z"/>
		</g>
		<path class="st37" d="M144.82,126.49c-3.72-2.1-5.32-3.34-5.32-3.34s0,0-2.52,5.43c-7.34,14.91-1.12,18.02-1.12,18.02
			s3.47,2.59,8.49,4.94C142.45,143.34,142.66,134.64,144.82,126.49z"/>
		<path class="st18" d="M165.38,136.03c-9.85-3.89-16.48-7.23-20.55-9.54c-2.16,8.14-2.37,16.84-0.47,25.04
			c1.88,0.88,3.98,1.72,6.19,2.39C158.07,156.19,165.38,136.03,165.38,136.03z"/>
		<g>
			<path class="st6" d="M138.85,128.43c3.52,2.74,17.83,9.64,23.31,11.14"/>
			<g>
				<path class="st6" d="M138.64,128.67c3.26,2.83,7.52,4.66,11.36,6.51c3.53,1.71,8.25,4.56,12.2,4.77c0.4,0.02,0.43-0.53,0.12-0.7
					c-3.67-2.04-8.04-3.23-11.86-5.05c-3.89-1.84-7.83-3.74-11.47-6.06C138.66,127.93,138.36,128.42,138.64,128.67L138.64,128.67z"
					/>
			</g>
		</g>
		<g>
			<path class="st6" d="M136.3,134c3.51,2.74,17.83,9.65,23.31,11.15"/>
			<g>
				<path class="st6" d="M136.09,134.24c3.26,2.83,7.52,4.66,11.36,6.51c3.54,1.7,8.25,4.56,12.2,4.77c0.4,0.02,0.43-0.53,0.12-0.7
					c-3.67-2.04-8.04-3.23-11.86-5.05c-3.89-1.84-7.83-3.74-11.47-6.06C136.11,133.5,135.81,134,136.09,134.24L136.09,134.24z"/>
			</g>
		</g>
		<g>
			<path class="st6" d="M134.92,139.61c3.24,2.54,16.4,8.98,21.42,10.4"/>
			<g>
				<path class="st6" d="M134.73,139.83c3.01,2.61,6.93,4.33,10.45,6.05c3.25,1.59,7.59,4.24,11.2,4.47
					c0.37,0.02,0.38-0.48,0.1-0.63c-3.38-1.9-7.39-3.03-10.9-4.73c-3.57-1.72-7.19-3.49-10.55-5.64
					C134.74,139.16,134.47,139.6,134.73,139.83L134.73,139.83z"/>
			</g>
		</g>
	</g>
</g>
<g id="book_00000038399493729211211930000004577317338960291513_">
	<g>
		<path class="st38" d="M1544.99,476.18c-8.97,13.04-6.68,32.23-6.68,32.23l42.32-6.78c-11.37-6.62-21.28-15.61-28.54-26.43
			L1544.99,476.18z"/>
		<path class="st6" d="M1594.74,469.33l-42.65,5.86c7.26,10.82,17.17,19.81,28.54,26.43l8.82-1.41
			C1585.46,490.15,1594.74,469.33,1594.74,469.33z"/>
		<path class="st39" d="M1433,442.15l-9.43-2.33c-16.59,18.95-10.54,42.83-10.54,42.83l11.29,2.78
			C1422.72,471.12,1425.66,454.93,1433,442.15z"/>
		<path class="st24" d="M1442.56,444.5l-9.56-2.35c-7.34,12.78-10.28,28.97-8.69,43.29l9.92,2.44
			C1434.3,472.98,1436.2,457.63,1442.56,444.5z"/>
		<path class="st24" d="M1531.05,466.29l-19.79-4.87c-5.2,13.98-7.3,29.22-6.65,43.79l18.07,4.45
			C1523.25,494.84,1525.96,480.1,1531.05,466.29z"/>
		<path class="st39" d="M1593.95,499.49l-55.64,8.91c0.45-16.84,3.87-26.82,6.68-32.23l0,0l54.33-7.48c2-2.07,1.41-5.73,1.41-5.73
			l-51.92,7.69l-17.76-4.37c-5.1,13.81-7.8,28.55-8.37,43.37l15.58,3.84l0,0h0l54.34-8.32
			C1594.59,503.1,1593.95,499.49,1593.95,499.49z"/>
		<path class="st39" d="M1511.26,461.41l-37.61-9.26l-19.19-4.72l-11.9-2.94c-6.36,13.13-8.27,28.49-8.33,43.38l13.07,3.22
			l16.32,4.02l40.98,10.09C1503.96,490.64,1506.06,475.4,1511.26,461.41z"/>
		<polygon class="st40" points="1423.57,439.82 1488.33,435.3 1600.73,462.97 1548.81,470.66 		"/>
	</g>
</g>
</svg>
