<?xml version="1.0" encoding="UTF-8"?>
<svg id="_圖層_1" data-name="圖層_1" xmlns="http://www.w3.org/2000/svg" version="1.1" viewBox="0 0 121.13 38.32">
  <!-- Generator: Adobe Illustrator 29.1.0, SVG Export Plug-In . SVG Version: 2.1.0 Build 142)  -->
  <defs>
    <style>
      .st0 {
        fill: #fff;
      }
    </style>
  </defs>
  <path class="st0" d="M118.39,14.41l-18.04-10.41c-3.66-2.11-8.23.53-8.23,4.75v.66c-2.89-4.87-7.89-8.42-13.93-9.24-10.49-1.41-20.13,5.95-21.54,16.43s5.95,20.13,16.43,21.54c7.85,1.06,15.23-2.81,19.04-9.22v.65c0,4.22,4.57,6.86,8.23,4.75l18.04-10.41c3.66-2.11,3.66-7.39,0-9.5Z"/>
  <path class="st0" d="M20.98,4L2.94,14.41c-3.66,2.11-3.66,7.39,0,9.5l18.04,10.41c3.66,2.11,8.23-.53,8.23-4.75V8.75c0-4.22-4.57-6.86-8.23-4.75Z"/>
</svg>